<?xml version="1.0" encoding="UTF-8"?>
<svg width="4907px" height="1408px" viewBox="0 0 4907 1408" version="1.1" xmlns="http://www.w3.org/2000/svg" xmlns:xlink="http://www.w3.org/1999/xlink">
    <!-- Generator: Sketch 42 (36781) - http://www.bohemiancoding.com/sketch -->
    <title>Overview</title>
    <desc>Created with Sketch.</desc>
    <defs>
        <rect id="path-1" x="0" y="238" width="408" height="795"></rect>
        <mask id="mask-2" maskContentUnits="userSpaceOnUse" maskUnits="objectBoundingBox" x="0" y="0" width="408" height="795" fill="white">
            <use xlink:href="#path-1"></use>
        </mask>
        <rect id="path-3" x="0" y="0" width="436" height="177"></rect>
        <mask id="mask-4" maskContentUnits="userSpaceOnUse" maskUnits="objectBoundingBox" x="0" y="0" width="436" height="177" fill="white">
            <use xlink:href="#path-3"></use>
        </mask>
        <rect id="path-5" x="0" y="3" width="991" height="524" rx="8"></rect>
        <mask id="mask-6" maskContentUnits="userSpaceOnUse" maskUnits="objectBoundingBox" x="0" y="0" width="991" height="524" fill="white">
            <use xlink:href="#path-5"></use>
        </mask>
        <rect id="path-7" x="45" y="35" width="900" height="452"></rect>
        <mask id="mask-8" maskContentUnits="userSpaceOnUse" maskUnits="objectBoundingBox" x="0" y="0" width="900" height="452" fill="white">
            <use xlink:href="#path-7"></use>
        </mask>
    </defs>
    <g id="Page-1" stroke="none" stroke-width="1" fill="none" fill-rule="evenodd">
        <g id="Desktop-HD" transform="translate(-539.000000, -1645.000000)">
            <g id="Overview" transform="translate(576.000000, 1658.000000)">
                <g id="ISP" transform="translate(88.000000, 1145.000000)">
                    <path d="M0.5,125 L4656.5,125" id="Line" stroke="#F3CA00" stroke-width="250" stroke-linecap="square"></path>
                    <text id="The-Line" font-family="HelveticaNeue-Bold, Helvetica Neue" font-size="144" font-weight="bold" letter-spacing="0.250000089" fill="#000000">
                        <tspan x="2034.172" y="180">The Line</tspan>
                    </text>
                </g>
                <g id="Server" transform="translate(3976.000000, 0.000000)">
                    <g id="Group" transform="translate(218.000000, 0.000000)" stroke="#FFFFFF" fill="#809EC3">
                        <use id="Rectangle" mask="url(#mask-2)" stroke-width="18" xlink:href="#path-1"></use>
                        <polyline id="Path-2" stroke-width="10" points="404.600098 239.25 605.790039 0.959960938 609.787802 703.560484 401.600098 1029.78003"></polyline>
                        <polyline id="Path-3" points="600.090537 10.0756678 234.812626 10.0756678 3.72221522 245.302923 402.191028 245.302923"></polyline>
                    </g>
                    <g id="Buttons-and-Drives" transform="translate(272.000000, 317.000000)">
                        <rect id="Rectangle-2" fill="#D8D8D8" x="0" y="0" width="290" height="113"></rect>
                        <rect id="Rectangle-3" fill="#D8D8D8" x="3" y="128" width="283" height="37"></rect>
                        <rect id="Rectangle-4" fill="#D8D8D8" x="32" y="213" width="226" height="35" rx="8"></rect>
                        <ellipse id="Oval-4" fill="#FF4343" cx="46.5" cy="312.5" rx="23.5" ry="11.5"></ellipse>
                        <ellipse id="Oval-4" fill="#E9FF15" cx="140.5" cy="312.5" rx="23.5" ry="11.5"></ellipse>
                        <ellipse id="Oval-4" fill="#2EFF5E" cx="227.5" cy="312.5" rx="23.5" ry="11.5"></ellipse>
                    </g>
                    <g id="Tag" transform="translate(0.000000, 908.000000)">
                        <use id="Rectangle-5" stroke="#FFFFFF" mask="url(#mask-4)" stroke-width="24" fill="#FFFFFF" xlink:href="#path-3"></use>
                        <text id="Server" font-family="HelveticaNeue-Bold, Helvetica Neue" font-size="66" font-weight="bold" line-spacing="113" letter-spacing="0.250000089" fill="#000000">
                            <tspan x="115.236724" y="96">Server</tspan>
                        </text>
                    </g>
                    <path d="M414,1030 L79,1260" id="Line" stroke="#FB0000" stroke-width="26" stroke-linecap="square"></path>
                    <path id="Line-decoration-1" d="M79,1260 L89.6015479,1256.36033 L86.2055089,1251.41393 L79,1260 Z" stroke="#FB0000" stroke-width="26" stroke-linecap="square"></path>
                </g>
                <g id="Client" transform="translate(0.000000, 258.000000)">
                    <g id="Group-2" transform="translate(37.000000, 0.000000)">
                        <rect id="Rectangle-8" fill="#D8D8D8" x="0" y="0" width="991" height="595" rx="8"></rect>
                        <use id="Rectangle-6" stroke="#000000" mask="url(#mask-6)" stroke-width="2" fill="#000000" xlink:href="#path-5"></use>
                        <use id="Rectangle-7" stroke="#979797" mask="url(#mask-8)" stroke-width="2" fill="#69D9DB" xlink:href="#path-7"></use>
                    </g>
                    <g id="Group-3" transform="translate(260.000000, 595.000000)" fill="#D8D8D8">
                        <polygon id="Polygon" transform="translate(272.644030, 65.125480) scale(1, -1) translate(-272.644030, -65.125480) " points="272.64403 0 357.28806 0 324.956917 130.25096 220.331142 130.25096 188 1.80759518e-14"></polygon>
                        <rect id="Rectangle-9" x="0" y="126" width="546" height="22" rx="8"></rect>
                    </g>
                    <g id="Tag" transform="translate(0.000000, 743.000000)">
                        <rect id="Rectangle-10" fill="#FFFFFF" x="0" y="0" width="519" height="168"></rect>
                        <text id="Client" font-family="HelveticaNeue-Bold, Helvetica Neue" font-size="66" font-weight="bold" letter-spacing="0.250000089" fill="#000000">
                            <tspan x="167.642" y="109">Client</tspan>
                        </text>
                    </g>
                    <path d="M1000.5,286.5 L1384,286.5" id="Line" stroke="#FB0000" stroke-width="26" stroke-linecap="square"></path>
                    <path id="Line-decoration-1" d="M1384,286.5 L1373.2,283.5 L1373.2,289.5 L1384,286.5 Z" stroke="#FB0000" stroke-width="26" stroke-linecap="square"></path>
                </g>
                <g id="ISP" transform="translate(1617.000000, 316.000000)">
                    <path d="M399,443 L399,836" id="Line" stroke="#FB0000" stroke-width="26" stroke-linecap="square"></path>
                    <path id="Line-decoration-1" d="M399,836 L402,825.2 L396,825.2 L399,836 Z" stroke="#FB0000" stroke-width="26" stroke-linecap="square"></path>
                    <rect id="Rectangle-11" fill="#397943" x="0" y="0" width="800" height="460" rx="8"></rect>
                    <text id="Internet-Service-Pro" font-family="HelveticaNeue-Bold, Helvetica Neue" font-size="64" font-weight="bold" letter-spacing="0.80000025" fill="#FFFFFF">
                        <tspan x="152.307998" y="216">Internet Service </tspan>
                        <tspan x="269.267999" y="292">Provider</tspan>
                    </text>
                </g>
            </g>
        </g>
    </g>
</svg>